<svg width="681" height="310" viewBox="0 0 681 310" fill="none" xmlns="http://www.w3.org/2000/svg">
<path d="M277.194 58.4681C284.378 58.4827 291.212 58.3526 298.036 58.5446C309.178 58.858 317.622 67.3175 317.581 77.8793C317.543 87.8373 308.888 96.4423 298.099 96.6327C283.737 96.8861 269.367 96.7158 255.001 96.7272C253.605 96.7283 252.21 96.7273 250.414 96.7273C250.414 103.905 250.418 110.889 250.412 117.873C250.408 122.261 250.4 122.306 245.629 122.26C235.587 122.163 236.972 123.608 236.907 113.887C236.85 105.189 237.035 96.4876 236.822 87.7939C236.744 84.6083 237.94 83.8228 241.105 83.8433C258.769 83.9579 276.433 83.8984 294.097 83.898C295.04 83.898 295.985 83.9442 296.923 83.8832C301.143 83.6085 304.124 80.8544 303.986 77.3958C303.843 73.8203 300.934 71.3244 296.589 71.3148C278.336 71.2744 260.083 71.2983 241.83 71.2965C236.901 71.296 236.901 71.2925 236.895 66.6608C236.885 58.4681 236.885 58.4681 245.399 58.4681C255.88 58.4681 266.36 58.4681 277.194 58.4681Z" fill="#F0E6E6"/>
<path d="M117.485 71.2973C113.602 71.2989 110.069 71.2227 106.541 71.3177C98.3116 71.5395 92.9141 76.7099 92.7978 84.4456C92.7408 88.2339 92.7452 92.0241 92.7956 95.8126C92.9044 103.99 98.5735 109.394 107.23 109.424C123.47 109.48 139.711 109.511 155.95 109.38C159.175 109.354 160.33 110.27 160.258 113.367C160.013 123.939 161.424 122.181 150.922 122.247C136.683 122.337 122.443 122.292 108.204 122.264C90.4857 122.229 79.3004 111.656 79.2748 94.9653C79.269 91.1762 79.2495 87.3869 79.2817 83.5981C79.3977 69.941 90.5714 58.8195 105.041 58.5805C122.335 58.2949 139.638 58.5157 156.937 58.4345C159.439 58.4228 160.256 59.4021 160.223 61.6239C160.049 73.1889 161.64 71.1743 150.671 71.2752C139.728 71.376 128.783 71.2973 117.485 71.2973Z" fill="#F7F7F7"/>
<path d="M441.85 58.4946C451.973 58.4948 461.744 58.5794 471.511 58.4456C474.566 58.4037 475.722 59.3961 475.684 62.3002C475.548 72.5721 476.626 71.2632 466.295 71.2891C452.053 71.3248 437.81 71.2875 423.568 71.3017C413.339 71.3118 408.058 76.2575 408.046 85.8714C408.041 89.7676 407.828 93.703 408.316 97.5518C409.279 105.157 414.583 109.407 422.708 109.428C438.598 109.469 454.488 109.439 470.378 109.441C475.453 109.442 475.625 109.609 475.647 114.252C475.69 123.485 476.018 122.21 467.395 122.233C452.799 122.272 438.204 122.263 423.608 122.239C405.686 122.21 394.539 111.64 394.52 94.696C394.516 90.6832 394.462 86.6693 394.546 82.658C394.808 70.1611 406.389 58.9609 419.605 58.5877C426.897 58.3818 434.199 58.5146 441.85 58.4946Z" fill="#B50418"/>
<path d="M348.073 72.6347C348.074 68.7313 348.132 65.1612 348.054 61.5939C348.005 59.368 348.857 58.2506 351.359 58.407C353.235 58.5243 355.126 58.4282 357.011 58.4304C361.782 58.4358 361.792 58.4365 361.794 62.8343C361.799 76.9984 361.796 91.1625 361.796 105.327C361.796 109.788 361.709 114.251 361.829 118.709C361.897 121.235 361.033 122.497 358.174 122.255C356.421 122.107 354.643 122.229 352.877 122.227C348.133 122.223 348.077 122.183 348.075 117.804C348.069 103.751 348.073 89.6985 348.073 75.6458C348.073 74.7536 348.073 73.8614 348.073 72.6347Z" fill="#E0CFCF"/>
<path d="M175.32 65.1585C181.834 59.8437 189.029 56.8686 198.328 56.792C192.05 67.0703 186.139 76.7475 179.856 87.0346C176.603 81.6959 173.531 76.892 170.799 71.9206C170.379 71.1558 171.304 69.4842 172 68.476C172.822 67.2865 174.073 66.3624 175.32 65.1585Z" fill="#AD0315"/>
<path d="M222.64 73.215C212.255 73.215 202.204 73.215 191.314 73.215C194.74 67.6132 197.748 62.6392 200.85 57.7187C201.113 57.3013 202.051 56.9743 202.603 57.054C213.403 58.6143 221.819 63.592 227.946 73.2151C225.882 73.2151 224.428 73.2151 222.64 73.215Z" fill="#AC0315"/>
<path d="M212.433 79.8055C211.625 78.4607 210.96 77.3201 209.941 75.5727C216.359 75.5727 222.173 75.5203 227.984 75.6422C228.672 75.6567 229.673 76.495 229.965 77.1702C234.031 86.5721 233.474 95.7273 228.036 105.395C222.642 96.5369 217.609 88.2732 212.433 79.8055Z" fill="#AE0315"/>
<path d="M167.662 74.8329C168.33 74.7365 169.191 74.6719 169.378 74.9776C174.922 84.0211 180.403 93.0995 185.87 102.186C186.015 102.428 185.888 102.818 185.888 103.481C180.095 103.481 174.364 103.582 168.647 103.369C167.824 103.338 166.719 101.92 166.328 100.937C162.84 92.1627 163.267 83.5079 167.662 74.8329Z" fill="#AF0315"/>
<path d="M205.343 110.965C209.143 104.722 212.801 98.6823 216.857 91.9844C220.132 97.3885 223.067 102.152 225.872 106.984C226.147 107.459 225.844 108.518 225.429 109.027C219.04 116.861 210.599 121.095 200.162 121.727C199.987 121.738 199.795 121.493 199.208 121.091C201.185 117.816 203.192 114.492 205.343 110.965Z" fill="#AE0315"/>
<path d="M191.685 106.121C196.238 106.121 200.437 106.121 205.242 106.121C202.126 111.316 199.372 116.069 196.393 120.691C195.961 121.361 194.375 121.814 193.439 121.674C183.108 120.131 175.17 115.039 168.739 106.121C176.728 106.121 184.03 106.121 191.685 106.121Z" fill="#AE0315"/>
<path d="M385.567 167.418C383.864 167.374 382.416 167.236 380.475 167.051C381.214 165.691 381.669 164.852 382.205 163.865C382.115 163.785 381.928 163.551 381.683 163.409C379.11 161.924 378.179 159.719 379.259 157.138C380.218 154.845 382.309 153.795 384.979 154.266C388.087 154.814 389.1 157.003 389.212 159.633C389.34 162.649 389.505 165.775 385.567 167.418ZM382.571 157.271C382.501 158.352 382.17 159.514 382.499 160.473C382.619 160.824 384.455 161.007 385.227 160.676C385.77 160.443 386.304 158.778 386.029 158.515C385.279 157.798 384.098 157.485 382.571 157.271Z" fill="#E5E5E5"/>
<path d="M219.899 150.312C222.708 150.126 225.428 150.392 226.052 152.906C226.538 154.867 225.597 157.145 225.291 159.282C224.953 159.279 224.615 159.277 224.277 159.274C225.192 160.652 226.107 162.029 227.278 163.793C223.48 164.878 222.583 162.121 221.351 160.326C220.427 158.981 219.622 157.291 222.131 156.211C222.73 155.953 222.932 154.868 223.317 154.164C222.17 153.678 221.024 153.193 219.258 152.445C219.258 156.17 219.354 159.052 219.193 161.921C219.151 162.672 218.314 163.384 217.842 164.114C217.364 163.389 216.502 162.678 216.474 161.937C216.331 158.27 216.409 154.595 216.409 150.588C217.578 150.487 218.581 150.399 219.899 150.312Z" fill="#88080C"/>
<path d="M230.337 157.896C229.881 156.728 229.527 155.803 229.142 154.795C232.918 153.109 232.226 156.804 233.409 157.705C234.468 156.549 235.496 155.427 236.524 154.306C237.491 155.43 238.458 156.554 239.479 157.741C240.695 156.783 239.951 153.165 243.817 154.709C242.934 157.085 242.15 159.494 241.122 161.807C240.726 162.697 239.776 163.367 239.079 164.137C238.435 163.325 237.774 162.524 237.155 161.695C236.958 161.432 236.872 161.095 236.729 160.776C236.511 160.836 236.255 160.829 236.16 160.943C235.29 161.988 234.448 163.054 233.598 164.114C232.832 162.968 231.99 161.86 231.327 160.664C230.897 159.889 230.726 158.985 230.337 157.896Z" fill="#88080C"/>
<path d="M207.083 157.496C207.215 159.44 207.371 161.117 207.273 162.78C207.01 167.252 203.264 168.886 198.648 166.078C199.647 165.516 200.382 164.924 201.229 164.681C201.983 164.465 202.861 164.635 203.801 164.232C200.612 163.819 197.669 163.369 197.273 159.625C197.022 157.245 197.837 155.251 200.263 154.52C203.114 153.66 205.644 154.326 207.083 157.496ZM200.262 158.168C200.768 159.097 201.127 160.162 201.867 160.872C202.094 161.09 203.716 160.529 204.056 159.973C204.406 159.401 204.143 157.769 203.849 157.697C202.809 157.442 201.641 157.657 200.262 158.168Z" fill="#88080C"/>
<path d="M324.051 150.381C326.924 151.168 328.287 152.801 327.961 155.369C327.465 159.278 323.903 158.997 321.138 159.542C320.974 159.873 320.865 160.059 320.788 160.256C320.294 161.52 319.758 163.89 319.327 163.873C316.338 163.752 317.938 161.4 317.825 160.063C317.565 156.997 317.742 153.897 317.742 150.345C319.9 150.345 321.829 150.345 324.051 150.381ZM324.705 155.555C325.106 152.128 322.781 153.051 320.616 153.121C320.713 154.416 320.789 155.436 320.892 156.812C322.346 156.483 323.419 156.239 324.705 155.555Z" fill="#E2E2E2"/>
<path d="M338.844 155.324C339.603 157.934 340.284 160.338 340.608 162.783C340.665 163.212 339.228 163.818 337.789 164.829C337.789 162.263 337.985 160.696 337.71 159.206C337.563 158.408 336.606 157.744 336.014 157.019C335.314 157.762 334.217 158.416 334.005 159.268C333.665 160.63 333.914 162.123 333.914 164.499C332.645 163.725 331.449 163.412 331.263 162.816C329.992 158.739 331.408 150.993 333.672 150.119C333.795 151.47 333.91 152.741 334.02 153.957C335.576 154.352 337.11 154.741 338.844 155.324Z" fill="#E2E2E2"/>
<path d="M282.622 156.188C282.499 157.696 282.54 158.947 282.222 160.11C281.481 162.812 279.531 164.285 276.567 164.082C273.916 163.901 271.369 161.104 271.773 158.759C272.228 156.114 273.796 154.293 276.938 154.237C277.62 154.225 278.301 154.165 279.17 154.116C279.336 152.688 279.485 151.405 279.651 149.973C284.161 150.52 282.09 153.785 282.622 156.188ZM276.872 156.953C276.274 157.937 275.494 158.875 275.195 159.934C275.111 160.232 276.449 161.283 277.119 161.27C277.823 161.256 279.164 160.231 279.082 159.909C278.815 158.86 278.025 157.93 276.872 156.953Z" fill="#86070C"/>
<path d="M99.1045 150.71C100.31 151.542 101.255 152.264 102.2 152.986C102.081 153.338 101.962 153.689 101.843 154.041C100.792 153.931 99.6374 154.046 98.7099 153.666C96.4613 152.743 94.2704 152.839 93.2133 154.883C92.5384 156.189 92.46 158.918 93.3 159.517C94.65 160.479 96.9806 160.212 98.8982 160.455C99.8744 160.578 100.854 160.681 101.831 160.793C101.299 161.547 100.939 162.544 100.203 163.013C97.4517 164.766 94.6296 164.518 92.062 162.629C89.3684 160.647 88.5094 157.921 89.5195 154.897C90.4927 151.984 92.7548 150.331 96.0803 150.275C96.9993 150.26 97.9229 150.485 99.1045 150.71Z" fill="#86070C"/>
<path d="M431.428 160.239C431.428 161.622 431.428 162.717 431.428 163.811C431.107 164.009 430.786 164.207 430.464 164.404C429.804 163.748 428.672 163.159 428.556 162.426C427.434 155.375 428.456 150.873 431.294 150.256C431.369 151.477 431.442 152.672 431.516 153.863C437.391 155.058 438.76 156.779 437.998 162.282C437.909 162.922 437.062 163.468 436.566 164.058C436.06 163.478 435.347 162.967 435.104 162.301C434.849 161.604 435.242 160.698 434.998 159.992C434.642 158.959 433.971 158.023 433.434 157.046C432.765 158.014 432.097 158.982 431.428 160.239Z" fill="#D2D2D2"/>
<path d="M422.051 163.681C420.536 163.807 419.279 163.878 417.833 163.96C417.774 164.839 417.709 165.812 417.606 167.356C416.547 166.823 415.056 166.42 415.056 166.016C415.054 162.937 414.848 159.715 415.772 156.845C416.171 155.605 419.149 154.35 420.846 154.472C422.344 154.58 424.255 156.345 424.974 157.819C426.173 160.28 424.721 162.305 422.051 163.681ZM422.06 157.767C420.835 157.688 419.561 157.408 418.418 157.66C418.096 157.73 417.761 159.582 418.154 160.216C418.548 160.853 420.411 161.49 420.639 161.257C421.43 160.448 421.791 159.262 422.06 157.767Z" fill="#E5E5E5"/>
<path d="M289.249 163.89C286.023 162.571 285.012 160.362 285.856 157.551C286.652 154.902 288.872 154.244 291.626 154.215C296.157 154.167 296.156 154.05 296.157 158.572C296.158 160.314 296.158 162.056 296.158 163.986C293.651 163.986 291.586 163.986 289.249 163.89ZM292.451 160.65C292.403 159.603 292.663 158.395 292.184 157.574C291.93 157.14 290.233 157.075 289.482 157.418C288.933 157.669 288.466 159.425 288.647 159.539C289.639 160.165 290.842 160.493 292.451 160.65Z" fill="#82070C"/>
<path d="M447.713 154.453C450.889 156.568 450.908 156.601 451.052 160.193C450.102 160.268 449.134 160.345 447.927 160.44C448.508 161.217 448.954 161.815 449.519 162.571C447.426 164.378 444.879 164.737 443.077 162.901C441.812 161.612 440.979 159.103 441.346 157.409C441.932 154.699 444.569 153.886 447.713 154.453ZM446.354 161.397C446.697 161.206 447.041 161.016 448.257 160.341C446.45 160.432 445.634 160.473 444.02 160.555C445.13 161.143 445.431 161.303 446.354 161.397Z" fill="#E2E2E2"/>
<path d="M400.87 159.52C401.846 154.542 403.545 153.737 411.222 154.427C411.222 157.475 411.222 160.54 411.222 163.592C404.479 164.696 402.679 164.025 400.87 159.52ZM408.598 159.19C407.671 158.425 406.839 157.44 405.761 157.018C405.401 156.877 403.946 158.114 403.843 158.831C403.742 159.542 404.789 161.087 405.199 161.047C406.339 160.936 407.41 160.19 408.598 159.19Z" fill="#E2E2E2"/>
<path d="M245.521 157.938C247.323 154.94 251.986 153.024 254.752 154.028C255.259 154.212 255.84 154.953 255.864 155.459C255.98 157.889 255.98 160.329 255.862 162.758C255.839 163.235 255.202 163.939 254.693 164.101C249.77 165.666 245.686 163.018 245.521 157.938ZM249.614 157.107C249.336 158.212 248.803 159.342 248.917 160.41C248.957 160.785 250.756 161.435 251.439 161.186C252.183 160.916 253.189 159.306 252.989 159.053C252.3 158.18 251.134 157.643 249.614 157.107Z" fill="#86070C"/>
<path d="M144.857 162.367C143.01 159.984 142.952 157.482 144.976 155.867C146.331 154.786 148.914 154.278 150.674 154.657C153.081 155.175 154.215 157.309 153.884 160.173C151.799 160.26 149.752 160.345 146.987 160.46C149.158 161.063 150.636 161.473 152.576 162.012C149.686 164.863 147.379 164.505 144.857 162.367Z" fill="#86070C"/>
<path d="M119.189 154.064C120.834 154.074 122.236 154.139 123.614 154.345C127.128 154.872 129.836 160.941 127.698 163.582C127.369 163.988 126.397 164.23 125.855 164.09C125.366 163.963 124.801 163.244 124.722 162.724C124.538 161.52 124.781 160.251 124.539 159.065C124.422 158.497 123.597 158.059 123.092 157.561C122.59 158.067 121.79 158.508 121.651 159.091C121.397 160.157 121.733 161.356 121.437 162.402C121.245 163.081 120.369 163.587 119.8 164.17C119.297 163.571 118.358 162.965 118.367 162.373C118.412 159.641 118.721 156.914 119.189 154.064Z" fill="#7A070B"/>
<path d="M302.315 154.171C307.98 154.569 310.493 158 308.871 162.939C308.714 163.419 307.974 164.035 307.512 164.03C307.063 164.024 306.345 163.354 306.241 162.878C306.029 161.919 306.389 160.82 306.074 159.915C305.763 159.022 304.91 158.299 304.295 157.501C303.727 158.28 302.956 158.995 302.651 159.858C302.367 160.657 302.741 161.652 302.523 162.49C302.365 163.096 301.748 163.99 301.273 164.026C300.699 164.071 299.557 163.372 299.531 162.947C299.369 160.3 299.354 157.632 299.567 154.992C299.595 154.637 301.181 154.394 302.315 154.171Z" fill="#86070C"/>
<path d="M131.541 154.444C138.972 153.696 141.565 155.983 140.7 162.292C140.61 162.947 139.789 163.511 139.308 164.118C138.861 163.483 138.218 162.901 138.006 162.202C137.512 160.575 139.022 157.651 136.094 157.667C133.067 157.684 134.987 160.632 134.368 162.172C134.083 162.877 133.518 163.481 133.08 164.131C132.439 163.516 131.286 162.927 131.247 162.28C131.096 159.749 131.298 157.199 131.541 154.444Z" fill="#86070C"/>
<path d="M191.535 154.926C194.748 156.917 194.359 159.815 194.167 162.554C194.127 163.117 193.029 163.613 192.419 164.14C191.982 163.601 191.302 163.113 191.164 162.512C190.946 161.556 191.308 160.462 191.011 159.547C190.762 158.78 189.92 158.186 189.341 157.515C188.723 158.192 187.868 158.784 187.552 159.57C187.239 160.348 187.639 161.364 187.41 162.198C187.218 162.898 186.571 163.487 186.126 164.125C185.639 163.521 184.769 162.939 184.731 162.311C184.574 159.672 184.665 157.019 184.665 153.7C187.108 154.111 189.195 154.463 191.535 154.926Z" fill="#82070C"/>
<path d="M464.036 161.242C464.763 161.195 465.218 161.157 464.966 161.178C464.348 159.388 462.753 157.138 463.384 155.939C464.029 154.717 466.83 154.394 468.761 154.004C469.136 153.928 469.85 155.351 470.757 156.541C468.664 156.774 467.419 156.913 465.899 157.082C467.126 157.594 468.394 157.79 469.064 158.496C469.748 159.217 470.387 160.644 470.07 161.39C469.625 162.438 468.409 163.581 467.284 163.88C465.945 164.236 464.354 163.741 462.873 163.615C463.17 162.827 463.467 162.038 464.036 161.242Z" fill="#D2D2D2"/>
<path d="M108.197 163.837C105.36 162.513 103.703 160.474 104.86 157.883C105.538 156.363 107.51 154.89 109.229 154.368C111.733 153.608 113.718 155.051 114.757 157.373C116.39 161.021 113.284 164.236 108.197 163.837ZM109.006 161.192C109.975 160.701 111.243 160.404 111.794 159.642C112.098 159.224 111.418 157.752 110.761 157.263C110.279 156.904 108.393 157.289 108.369 157.482C108.227 158.605 108.452 159.768 109.006 161.192Z" fill="#86070C"/>
<path d="M353.909 157.46C354.598 160.608 353.579 162.793 350.546 163.732C347.881 164.557 345.683 163.715 344.34 161.321C343.057 159.033 343.662 156.986 345.617 155.335C348.153 153.194 351.426 153.989 353.909 157.46ZM347.132 160.547C348.343 160.56 349.625 160.787 350.722 160.459C351.065 160.356 351.297 158.512 350.874 157.912C350.445 157.306 348.572 156.782 348.327 157.046C347.571 157.865 347.29 159.077 347.132 160.547Z" fill="#EBEBEB"/>
<path d="M376.119 158.993C375.056 160.719 374.297 162.674 372.824 163.54C370.422 164.953 367.328 163.561 366.139 161.101C364.989 158.722 365.881 156.116 368.29 154.814C370.768 153.476 373.78 154.187 375.306 156.557C375.718 157.198 375.845 158.003 376.119 158.993ZM369.027 160.549C370.241 160.565 371.523 160.789 372.629 160.469C372.964 160.372 373.203 158.52 372.778 157.927C372.339 157.315 370.464 156.781 370.221 157.044C369.458 157.871 369.167 159.089 369.027 160.549Z" fill="#EBEBEB"/>
<path d="M259.513 157.114C259.971 155.837 260.238 154.185 260.919 154.014C263.967 153.25 267.933 155.11 268.465 157.483C268.849 159.195 268.73 161.028 268.642 162.799C268.619 163.253 267.863 163.675 267.444 164.112C266.949 163.631 266.167 163.215 266.022 162.653C265.778 161.704 266.14 160.608 265.866 159.674C265.633 158.878 264.863 158.223 264.331 157.505C263.68 158.256 262.77 158.92 262.45 159.781C262.117 160.678 262.485 161.788 262.289 162.758C262.186 163.264 261.529 163.668 261.122 164.118C260.594 163.67 259.664 163.261 259.61 162.766C259.417 161 259.521 159.205 259.513 157.114Z" fill="#88080C"/>
<path d="M157.295 161.933C155.618 158.898 156.167 156.416 159.038 154.875C161.301 153.66 163.706 153.765 166.224 157.053C164.343 157.053 163.213 156.792 162.324 157.119C161.22 157.525 160.315 158.418 159.323 159.1C160.215 159.771 161.011 160.678 162.025 161.045C163.062 161.42 164.312 161.266 165.801 161.366C163.127 164.932 160.931 165.01 157.295 161.933Z" fill="#86070C"/>
<path d="M359.499 162.551C356.568 158.222 357.052 152.346 359.458 151.531C360.693 152.608 361.676 153.422 362.6 154.293C362.945 154.617 363.444 155.364 363.375 155.426C362.655 156.077 361.835 156.629 360.332 157.728C361.288 159.482 362.457 161.627 363.625 163.771C363.411 163.944 363.197 164.117 362.983 164.29C361.888 163.768 360.792 163.247 359.499 162.551Z" fill="#EBEBEB"/>
<path d="M172.744 154.163C175.179 154.56 175.676 155.815 173.718 156.638C170.434 158.019 172.125 159.352 173.26 160.883C173.877 161.717 174.462 162.572 175.519 164.06C171.175 163.928 169.597 162.153 169.158 159.376C168.917 157.849 168.917 156.247 169.114 154.714C169.249 153.666 169.912 152.679 170.338 151.665C171.047 152.475 171.756 153.284 172.744 154.163Z" fill="#88080C"/>
<path d="M392.934 162.026C392.952 156.32 394.045 154.849 398.535 154.231C398.648 154.415 398.902 154.67 398.845 154.776C397.319 157.615 395.067 160.074 395.065 163.659C395.064 164.486 392.866 164.072 392.934 162.026Z" fill="#E2E2E2"/>
<path d="M454.138 159.913C454.599 156.431 456.235 154.354 460.502 154.069C460.087 155.199 459.996 156.545 459.456 156.733C456.906 157.618 457.303 159.543 457.057 161.407C456.934 162.334 456.049 163.171 455.509 164.048C455.049 163.205 454.53 162.385 454.158 161.509C453.995 161.126 454.131 160.629 454.138 159.913Z" fill="#D2D2D2"/>
<path d="M177.703 162.642C177.69 160.587 177.797 158.818 177.659 157.067C177.494 154.978 178.32 153.948 180.99 154.08C180.99 156.886 181.037 159.704 180.948 162.519C180.932 163.05 180.231 164.047 180.096 164.01C179.262 163.783 178.5 163.32 177.703 162.642Z" fill="#7A070B"/>
<path d="M382.829 157.142C384.097 157.485 385.278 157.798 386.029 158.515C386.304 158.777 385.77 160.443 385.226 160.676C384.455 161.007 382.619 160.824 382.498 160.473C382.169 159.514 382.501 158.352 382.829 157.142Z" fill="#080001"/>
<path d="M200.392 157.931C201.641 157.657 202.809 157.442 203.849 157.697C204.143 157.769 204.406 159.4 204.056 159.973C203.715 160.529 202.094 161.09 201.867 160.872C201.127 160.162 200.767 159.097 200.392 157.931Z" fill="black"/>
<path d="M324.599 155.775C323.419 156.239 322.346 156.483 320.892 156.812C320.789 155.436 320.713 154.417 320.616 153.121C322.781 153.051 325.106 152.129 324.599 155.775Z" fill="#171717"/>
<path d="M277.154 156.954C278.025 157.93 278.815 158.86 279.081 159.909C279.163 160.231 277.823 161.256 277.119 161.27C276.449 161.284 275.111 160.232 275.195 159.935C275.494 158.875 276.274 157.937 277.154 156.954Z" fill="#080001"/>
<path d="M422.187 157.993C421.79 159.262 421.429 160.449 420.638 161.257C420.41 161.49 418.548 160.853 418.153 160.216C417.761 159.582 418.095 157.731 418.417 157.66C419.56 157.408 420.834 157.688 422.187 157.993Z" fill="#171717"/>
<path d="M292.211 160.787C290.842 160.493 289.639 160.166 288.647 159.539C288.466 159.425 288.933 157.67 289.482 157.419C290.233 157.075 291.93 157.141 292.184 157.575C292.663 158.395 292.403 159.604 292.211 160.787Z" fill="#080001"/>
<path d="M446.043 161.431C445.431 161.304 445.13 161.144 444.021 160.555C445.634 160.474 446.45 160.433 448.257 160.342C447.041 161.016 446.698 161.207 446.043 161.431Z" fill="black"/>
<path d="M408.553 159.443C407.41 160.19 406.338 160.935 405.198 161.047C404.788 161.087 403.741 159.542 403.843 158.83C403.945 158.114 405.401 156.877 405.761 157.018C406.838 157.44 407.67 158.425 408.553 159.443Z" fill="#171717"/>
<path d="M249.882 157.042C251.134 157.642 252.299 158.179 252.989 159.052C253.189 159.306 252.182 160.915 251.438 161.186C250.756 161.434 248.957 160.784 248.917 160.409C248.803 159.341 249.336 158.212 249.882 157.042Z" fill="#080001"/>
<path d="M108.78 161.055C108.453 159.768 108.228 158.605 108.369 157.482C108.394 157.289 110.279 156.904 110.761 157.262C111.419 157.752 112.098 159.224 111.795 159.642C111.243 160.404 109.975 160.701 108.78 161.055Z" fill="#080001"/>
<path d="M346.978 160.341C347.289 159.076 347.571 157.865 348.327 157.046C348.571 156.781 350.444 157.305 350.873 157.912C351.296 158.512 351.064 160.356 350.721 160.459C349.624 160.786 348.342 160.559 346.978 160.341Z" fill="#171717"/>
<path d="M368.86 160.352C369.167 159.089 369.459 157.871 370.222 157.044C370.465 156.781 372.34 157.315 372.778 157.927C373.203 158.52 372.964 160.372 372.629 160.469C371.523 160.789 370.242 160.565 368.86 160.352Z" fill="#171717"/>
</svg>
